<?xml version="1.0" encoding="utf-8"?>
<!-- Generator: Adobe Illustrator 27.9.0, SVG Export Plug-In . SVG Version: 6.00 Build 0)  -->
<svg version="1.1" id="Capa_1" xmlns="http://www.w3.org/2000/svg" xmlns:xlink="http://www.w3.org/1999/xlink" x="0px" y="0px"
	 viewBox="0 0 1200 1213.03" style="enable-background:new 0 0 1200 1213.03;" xml:space="preserve">
<style type="text/css">
	.st0{fill:#FFFFFF;}
	.st1{fill:#E41723;}
	.st2{fill:#6DC5D6;}
	.st3{fill:none;}
	.st4{fill:none;stroke:#6FC7D8;stroke-width:3;}
	.st5{fill:#221B16;}
	.st6{fill:none;stroke:#FFFFFF;stroke-width:2;stroke-miterlimit:10;}
	.st7{fill:#737378;}
	.st8{fill:#D90F15;}
</style>
<g id="Grupo_2812_00000103242244439837050320000017267019877174351798_" transform="translate(-23.032)">
	<g id="Grupo_2804_00000032615609286041488100000017705544624776811653_" transform="translate(0 -3)">
		<g id="Match2_00000096024815703495118780000018205813495275396485_" transform="translate(18)">
			<path id="Elipse_20_00000054978318141478080280000002834560407254854567_" class="st2" d="M605.03,42.93
				c-75.14-0.14-149.52,14.99-218.64,44.48c-33.42,14.27-65.38,31.75-95.42,52.21C31.46,316.59-35.46,670.43,141.51,929.95
				c40.05,58.73,90.74,109.42,149.47,149.47c30.04,20.46,62,37.94,95.42,52.21c139.72,59.31,297.55,59.31,437.27,0
				c33.42-14.27,65.38-31.75,95.42-52.21c259.52-176.97,326.44-530.8,149.47-790.32c-40.05-58.73-90.74-109.42-149.47-149.47
				c-30.04-20.46-62-37.94-95.42-52.21C754.56,57.92,680.17,42.79,605.03,42.93 M605.03,14.84c325.85,0,590,266.25,590,594.68
				s-264.15,594.68-590,594.68s-590-266.25-590-594.68S279.18,14.84,605.03,14.84z"/>
			<g id="fondo_00000032613337734474364470000016580799308976379304_" transform="translate(13.032 11)">
				<ellipse class="st3" cx="592" cy="598.52" rx="515.08" ry="519.76"/>
				<ellipse class="st4" cx="592" cy="598.52" rx="501.03" ry="505.71"/>
			</g>
			<g id="match2-2_00000113319147957609482150000016449865399901602213_" transform="translate(0 0)">
				<g id="Grupo_1001_00000134212712853210151570000002470865901352460445_">
					<g id="Grupo_1000_00000093894274658894009250000015334821340035668671_" transform="translate(10.153 8.585)">
						<path id="Trazado_579_00000158751055459257825860000011019572312317996707_" class="st5" d="M1094.73,397.64
							c111.89,276.91-21.89,592.1-298.8,703.98s-592.1-21.89-703.98-298.8s21.89-592.1,298.8-703.98c0.2-0.08,0.39-0.16,0.59-0.24
							c276.82-110.98,591.27,22.7,703.44,299.03"/>
						<path id="Trazado_580_00000029730954539863520680000002191527364954900358_" class="st6" d="M1094.73,397.64
							c111.89,276.91-21.89,592.1-298.8,703.98s-592.1-21.89-703.98-298.8s21.89-592.1,298.8-703.98c0.2-0.08,0.39-0.16,0.59-0.24
							c276.82-110.98,591.27,22.7,703.44,299.03"/>
					</g>
				</g>
				<path id="Trazado_581_00000018209928353162538070000005121573905674247326_" class="st7" d="M615.26,149.03
					c0,0,294.39,54.23,419.89,365.67C1035.15,513.15,1002.62,125.79,615.26,149.03"/>
				<path id="Trazado_582_00000017501615259603007590000007296472355068099719_" class="st0" d="M384.4,469.76l41.83,105.36
					c9.4,24.14-2.55,51.33-26.7,60.73c-23.51,9.15-50.05-1.93-60.07-25.09l-24.79-63.49c-55.78,21.69-89.9-63.52-34.09-85.22
					L322.42,445c22.71-10.77,49.86-1.08,60.62,21.63c0.49,1.04,0.94,2.09,1.35,3.16"/>
				<path id="Trazado_583_00000154421435437118599750000003821177539743750059_" class="st0" d="M607.49,438.77
					c21.36,53.9-4.97,114.91-58.85,136.33c-52.88,21.47-113.15-4-134.61-56.87c-0.06-0.15-0.12-0.31-0.19-0.46
					c-20.83-53.88,5.95-114.44,59.83-135.27C526.15,362.2,585.28,387.07,607.49,438.77 M500.6,482.16c2.14,5.56,8.38,8.33,13.94,6.2
					c5.56-2.14,8.33-8.38,6.2-13.94c-2.14-5.56-8.38-8.33-13.94-6.2c-5.09,1.08-8.34,6.08-7.27,11.17
					C499.74,480.36,500.1,481.3,500.6,482.16"/>
				<path id="Trazado_584_00000161596183031117056670000010305779253543855284_" class="st0" d="M805.82,358.21
					c21.36,53.9-4.97,114.91-58.85,136.33c-52.88,21.47-113.15-4-134.61-56.87c-0.06-0.15-0.12-0.31-0.19-0.46
					c-21.21-53.48,4.28-114.1,57.33-136.35c53.43-21.83,114.44,3.79,136.26,57.22C805.78,358.12,805.8,358.16,805.82,358.21
					 M698.94,401.59c2.14,5.56,8.38,8.33,13.94,6.2c5.56-2.14,8.33-8.38,6.2-13.94c-2.14-5.56-8.38-8.33-13.94-6.2
					C699.88,390.11,697.24,396.05,698.94,401.59"/>
				<path id="Trazado_585_00000125582417937221407460000017512793850811243660_" class="st0" d="M773.3,809.13
					c19.66,48.78-3.95,104.27-52.73,123.93c-48.78,19.66-104.27-3.95-123.93-52.73c-19.66-48.78,3.94-104.25,52.71-123.92
					C698.14,737.13,753.36,760.62,773.3,809.13 M675.69,847.83c2,4.88,7.3,7.53,12.4,6.2c5.27-2.46,7.91-8.44,6.19-13.99
					c-2.17-5.53-8.38-8.29-13.94-6.2c-3.79,3.58-5.54,8.81-4.68,13.94"/>
				<path id="Trazado_586_00000154400960101469105340000015130103887716220820_" class="st0" d="M909.65,733.17
					c-9.92-1.28-20.01-0.22-29.44,3.1c-1.55,1.55-1.55,4.68,0,3.1c71.28-10.84,103.81,86.77,26.34,116.21
					c-20.14,7.74-32.53,13.94-52.68,21.69c-21.31,6.27-44.08-3.48-54.23-23.24c-5.98-12.01-4.78-26.34,3.1-37.19
					c12.58,2.39,25.59,0.75,37.19-4.68c1.55-1.55,1.55-3.1-1.55-3.1c-7.41,2.87-15.52,3.41-23.24,1.55
					c-57.33-6.2-79.02-88.32-7.74-116.21c20.14-7.74,32.53-13.94,52.68-21.69c20.79-9.06,44.98,0.45,54.04,21.24
					c0.07,0.15,0.13,0.3,0.19,0.45c6.52,12.65,4.66,28-4.68,38.73"/>
				<path id="Trazado_587_00000040535684455783534220000004552493040129186730_" class="st0" d="M516.09,872.61l-23.24-17.04
					c-2.68-18.89,8.34-37.05,26.34-43.39c21.39-7.57,45,2.57,54.23,23.29l38.73,96.07c8.66,21.24-1.54,45.48-22.78,54.14
					c-11.18,4.56-23.79,4.03-34.55-1.46l-130.17-55.78c-20.54-7.91-30.77-30.97-22.86-51.51c0.36-0.92,0.74-1.83,1.17-2.72
					c8.63-20.82,32.51-30.71,53.33-22.08c0.3,0.13,0.6,0.25,0.9,0.39l58.88,24.79c0,0,1.55-3.1,0-4.68"/>
				<g id="Grupo_1002_00000149360202317783599140000015644609925062892163_" transform="translate(38.827 49.284)">
					<path id="Trazado_588_00000021079803836446109780000008791987464000720831_" class="st2" d="M703.49,666.83
						c1.71,5.13-1.07,10.68-6.2,12.39c-5.13,1.71-10.68-1.07-12.39-6.2c-1.71-5.13,1.06-10.67,6.19-12.38
						C696.19,659.31,701.49,661.96,703.49,666.83"/>
					<path id="Trazado_589_00000090256295467404477100000001893832040126552255_" class="st2" d="M590.39,656
						c14.8-7.14,28.38-16.55,40.27-27.89l-17.04,77.47l13.94-4.68l15.51-71.25c9.3-38.73,13.94-69.72,1.55-100.71
						c-18.18-45.59-69.88-67.82-115.47-49.63c-1.27,0.51-2.53,1.04-3.78,1.61c-52.68,21.69-71.28,71.28-51.13,120.81
						c20.14,51.13,69.72,74.37,116.21,54.23 M486.57,598.67c-18.59-44.95,0-88.31,41.83-103.81c41.87-15.32,88.23,6.21,103.55,48.08
						c14.83,40.53-4.85,85.56-44.67,102.21C547.02,660.63,505.16,643.6,486.57,598.67"/>
					<path id="Trazado_590_00000003070554302590296890000015224088667838071725_" class="st2" d="M777.86,581.62
						c14.8-7.14,28.38-16.55,40.27-27.89l-18.59,80.54c4.91-1.41,9.61-3.5,13.94-6.2l17.04-72.82c9.3-38.73,13.94-69.72,1.55-100.71
						c-18.19-45.59-69.89-67.8-115.48-49.61c-1.27,0.51-2.52,1.04-3.76,1.6c-52.68,21.69-71.28,71.28-51.13,120.81
						C681.84,576.87,731.38,600.22,777.86,581.62 M674.05,522.74c-18.59-44.95,0-88.31,41.83-103.81
						c41.87-15.32,88.23,6.21,103.55,48.08c14.83,40.53-4.85,85.56-44.67,102.21C734.49,586.27,692.64,567.68,674.05,522.74"/>
					<path id="Trazado_591_00000026151481889232484290000002455422153404757166_" class="st2" d="M426.14,896.18l-10.84-4.68
						l-13.94,60.42l-30.99-51.13l-10.84,4.68L398.25,969l1.55,32.53l12.4-4.68l-1.55-32.53L426.14,896.18z"/>
					<path id="Trazado_592_00000130605145737467418490000000407418685371701123_" class="st2" d="M418.39,727.27
						c14.8-7.14,28.38-16.55,40.27-27.89l-24.77,110l10.84,4.68l24.79-113.15c9.3-38.73,13.94-69.72,1.55-100.71
						c-18.18-45.59-69.88-67.82-115.47-49.63c-1.27,0.51-2.53,1.04-3.78,1.61c-52.68,21.69-71.28,71.28-51.13,120.81
						c21.69,51.13,71.28,72.82,117.76,54.23 M316.13,668.39c-18.59-44.95,0-88.31,41.83-103.81c41.87-15.32,88.23,6.21,103.55,48.08
						c14.83,40.53-4.85,85.56-44.67,102.21c-38.57,15.94-82.75-2.41-98.68-40.98C317.41,672.08,316.73,670.25,316.13,668.39"/>
				</g>
				<path id="Trazado_593_00000141446383673386387430000015173840542645328296_" class="st0" d="M254.25,451.17l-30.99-77.47
					l-7.74,3.1l34.09,83.67l43.39-17.04l-3.1-7.74L254.25,451.17z"/>
				<path id="Trazado_594_00000079482629245711840970000015468981448512972978_" class="st0" d="M365.8,412.44l-92.97-58.88
					l-7.74,3.1l34.09,83.67l7.74-3.1l-30.99-72.82l80.54,52.68L365.8,412.44z"/>
			</g>
		</g>
	</g>
</g>
</svg>
